<?xml version="1.0" encoding="utf-8"?>
<!-- Generator: Adobe Illustrator 16.0.0, SVG Export Plug-In . SVG Version: 6.00 Build 0)  -->
<!DOCTYPE svg PUBLIC "-//W3C//DTD SVG 1.1//EN" "http://www.w3.org/Graphics/SVG/1.1/DTD/svg11.dtd">
<svg version="1.1" id="Слой_1" xmlns="http://www.w3.org/2000/svg" xmlns:xlink="http://www.w3.org/1999/xlink" x="0px" y="0px"
	 width="500px" height="100px" viewBox="0 0 500 100" enable-background="new 0 0 500 100" xml:space="preserve">
<g>
	<path fill="#FFFFFF" d="M35.135,27.641v7.671H17.76v33.69H7.334V27.641H35.135z"/>
	<path fill="#FFFFFF" d="M40.655,28.194c3.203-0.491,7.7-0.859,14.037-0.859c6.405,0,10.97,1.104,14.036,3.314
		c2.931,2.086,4.906,5.522,4.906,9.572c0,4.051-1.499,7.487-4.225,9.819c-3.543,3.007-8.79,4.356-14.922,4.356
		c-1.363,0-2.589-0.063-3.543-0.185v14.789h-10.29L40.655,28.194L40.655,28.194z M50.944,46.972
		c0.885,0.184,1.976,0.245,3.475,0.245c5.52,0,8.926-2.515,8.926-6.75c0-3.804-2.93-6.076-8.108-6.076
		c-2.112,0-3.543,0.184-4.292,0.37L50.944,46.972L50.944,46.972z"/>
	<path fill="#FFFFFF" d="M89.783,27.641v12.273c0,6.628-0.136,13.193-0.544,18.716h0.272c2.385-4.848,5.451-10.309,8.177-14.728
		l9.88-16.262h10.629v41.362h-9.539V56.791c0-6.382,0.136-12.028,0.75-17.428h-0.205c-2.112,4.91-5.042,10.371-7.768,14.728
		L92.1,69.003H80.244V27.641H89.783z"/>
	<path fill="#FFFFFF" d="M162.147,27.641v41.362H151.79v-33.69h-10.426v9.818c0,10.617-1.499,18.78-8.449,22.461
		c-2.317,1.165-5.451,2.024-9.131,2.024l-1.294-7.548c2.249-0.245,4.088-1.104,5.246-2.209c2.794-2.577,3.476-7.854,3.476-14.114
		V27.641H162.147z"/>
	<path fill="#FFFFFF" d="M181.567,27.641v14.36c1.431-0.122,3.611-0.307,5.587-0.307c9.88,0,18.261,4.235,18.261,13.44
		c0,3.929-1.431,6.874-3.679,9.021c-4.429,4.051-12.129,5.277-19.284,5.277c-5.111,0-8.927-0.307-11.244-0.613V27.641H181.567z
		 M181.499,62.189c1.159,0.186,2.385,0.248,3.884,0.248c5.042,0,9.131-2.211,9.131-6.873c0-4.727-4.02-6.69-8.994-6.69
		c-1.5,0-2.726,0.123-4.021,0.246V62.189z"/>
</g>
<g>
	<path fill="#FFFFFF" d="M305.666,28.207v33.691h16.082V28.207h10.355v33.998l4.635,0.245l-0.478,17.612h-7.903l-0.547-10.494
		h-32.569V28.207H305.666z"/>
	<path fill="#FFFFFF" d="M369.854,52.079h-16.897v9.817h18.875v7.672h-29.3V28.207h28.346v7.671h-17.921v8.591h16.897V52.079
		L369.854,52.079z"/>
	<path fill="#FFFFFF" d="M389.342,28.207v15.895h17.104V28.207h10.357v41.361h-10.357V52.264h-17.104v17.305h-10.425V28.207H389.342
		z"/>
	<path fill="#FFFFFF" d="M434.724,36.062h-12.335v-7.855h35.3v7.855h-12.539v33.506h-10.426V36.062L434.724,36.062z"/>
	<path fill="#FFFFFF" d="M463.205,28.759c3.202-0.491,7.701-0.859,14.036-0.859c6.406,0,10.972,1.105,14.038,3.314
		c2.93,2.086,4.905,5.523,4.905,9.574c0,4.05-1.5,7.486-4.226,9.819c-3.544,3.007-8.789,4.357-14.922,4.357
		c-1.363,0-2.59-0.063-3.544-0.188v14.791h-10.289L463.205,28.759L463.205,28.759z M473.494,47.538
		c0.886,0.184,1.977,0.246,3.476,0.246c5.52,0,8.928-2.517,8.928-6.751c0-3.805-2.932-6.077-8.109-6.077
		c-2.112,0-3.542,0.185-4.293,0.369L473.494,47.538L473.494,47.538z"/>
</g>
<path fill="#FF6700" d="M245.53,12.807c0.303,1.853-1.261,3.706-2.216,5.123c-1.054,1.57-2.284,2.86-3.542,4.251
	c-2.136,2.362-4.351,4.667-6.42,7.085c-2.888,3.379-5.865,6.94-7.735,11.01c-3.385,7.368-3.599,16.583,1.928,23
	c1.619,1.879,3.566,3.54,5.668,4.86c2.608,1.636,5.517,3.045,8.503,3.86c-0.802-1.925-1.935-3.7-2.65-5.668
	c-1.285-3.537-1.652-8.223-0.245-11.772c0.605-1.56,1.428-3.123,2.432-4.47c0.568-0.761,1.422-1.392,1.77-2.289
	c0.196,0.662,0.094,1.386,0.109,2.071c0.023,0.901,0.128,1.832,0.249,2.726c0.402,2.991,1.534,6.104,3.021,8.72
	c2.096,3.707,4.878,6.941,8.284,9.498c0.726,0.544,1.48,1.055,2.18,1.631c0.26,0.212,0.618,0.645,0.982,0.623
	c0.293-0.003,0.544-0.287,0.764-0.457c0.496-0.395,1.021-0.757,1.524-1.145c2.277-1.752,4.205-3.754,5.974-6.008
	c1.832-2.336,3.511-4.797,4.71-7.521c1.218-2.722,1.854-5.761,2.061-8.72c0.087-1.258-0.07-2.565-0.189-3.815
	c-0.255-2.687-0.746-5.254-2.105-7.631c-1.002-1.744-2.298-3.142-3.799-4.47c-0.763-0.654-1.536-1.436-2.507-1.744
	c-0.021,2.447-0.677,5.232-2.022,7.304c-0.436,0.672-1.04,1.247-1.575,1.853c-1.691,1.98-3.979,3.493-6.651,3.706
	c1.506-1.957,2.747-4.251,3.409-6.649c0.402-1.448,0.481-2.976,0.517-4.47c0.02-0.696,0.147-1.369,0.1-2.07
	c-0.1-1.186-0.429-2.349-0.754-3.489c-0.387-1.487-0.813-2.975-1.505-4.36c-1.07-2.141-2.746-4.059-4.381-5.777
	c-1.217-1.276-2.399-2.398-3.815-3.474C246.947,13.644,246.293,13.055,245.53,12.807z"/>
</svg>
